<svg width="552" height="409" viewBox="0 0 552 409" fill="none" xmlns="http://www.w3.org/2000/svg">
<g clip-path="url(#clip0_2466_127)">
<path d="M508.538 99.4221C445.888 12.4583 313.54 -22.818 183.381 15.1754C114.57 35.2614 48.2235 75.5066 15.3436 153.434C-43.4326 292.739 79.9755 337.229 160.671 351.409C199.691 358.265 236.441 369.783 270.024 385.464C330.442 413.675 437.386 438.673 518.029 321.16C576.48 235.985 550.27 157.349 508.538 99.4221Z" fill="#F2F2F2"/>
<path d="M145.309 116.628C145.134 115.245 144.78 113.892 144.255 112.601C144.188 112.357 144.071 112.129 143.911 111.933C143.751 111.736 143.552 111.575 143.326 111.46C143.024 111.381 142.708 111.378 142.404 111.449L137.672 112.172C137.276 112.19 136.896 112.337 136.592 112.59C135.976 113.237 136.583 114.278 136.564 115.17C136.543 116.173 135.649 116.987 134.68 117.257C133.691 117.456 132.671 117.443 131.687 117.22L125.07 116.194C127.019 115.573 128.753 114.418 130.076 112.861C130.947 111.832 131.41 109.911 130.152 109.424C129.778 109.322 129.388 109.29 129.002 109.332C126.004 109.355 123.645 106.858 120.838 105.807C119.042 105.177 117.092 105.13 115.267 105.673C113.442 106.215 111.836 107.32 110.679 108.827L114.204 108.997C114.536 108.979 114.865 109.066 115.143 109.247C115.916 109.88 114.955 111.096 115.064 112.088C115.205 113.376 116.92 113.651 118.212 113.781C119.505 113.911 121.144 114.959 120.523 116.096C114.027 118.328 107.416 111.733 100.594 112.545C98.8672 112.751 97.2368 113.427 95.551 113.853C85.2529 116.452 74.6064 109.517 64.0864 110.986C61.7476 111.384 59.449 111.988 57.2179 112.793C55.7861 113.262 54.2926 113.769 53.2523 114.856C52.2119 115.944 51.816 117.804 52.8016 118.941C50.0851 119.164 47.3505 118.905 44.7248 118.175C45.4349 118.569 46.0256 119.146 46.4349 119.846C46.8442 120.546 47.0571 121.343 47.0512 122.153C42.8098 122.843 38.6807 124.099 34.7749 125.887C35.5039 127.096 36.3553 128.227 37.3158 129.263L31.9463 132.704C33.7604 133.16 34.6983 135.628 33.6433 137.169C35.5243 136.334 36.6901 134.175 38.7015 133.737C40.0193 133.45 41.3601 133.988 42.6102 134.493C43.8603 134.998 45.2342 135.488 46.5283 135.109C47.8224 134.73 48.7769 133.056 47.9546 131.989C53.486 130.38 59.2025 129.489 64.9624 129.339C65.4068 129.283 65.8575 129.368 66.2505 129.583C67.0003 130.102 66.8031 131.222 66.7627 132.132C66.7223 133.041 67.4329 134.236 68.2477 133.826C67.289 134.656 68.1086 136.217 69.0283 137.089C69.948 137.961 71.0565 139.164 70.4935 140.298C70.3465 140.594 70.0973 140.831 69.9558 141.13C69.5385 142.011 70.2012 143.039 70.9828 143.625C71.7645 144.211 72.7219 144.62 73.2649 145.431C73.8078 146.241 73.5613 147.661 72.5903 147.774L69.8307 144.279C68.8878 145.254 68.2414 146.476 67.9664 147.803C70.8929 150.189 71.333 155.046 68.8831 157.917C67.6311 159.384 65.8506 160.276 64.2967 161.42C62.7428 162.565 61.3049 164.195 61.3088 166.121C61.3155 169.45 61.0429 172.543 62.2934 175.629C64.5993 181.319 67.2615 186.86 70.2644 192.217C71.0529 193.624 72.072 195.166 73.6695 195.408C71.6506 190.506 69.8332 185.527 68.2173 180.472C69.2698 180.476 70.4861 180.559 71.1031 181.41C71.6139 182.114 71.5042 183.072 71.663 183.926C71.8649 184.755 72.2016 185.544 72.6596 186.264L82.3004 203.394C83.0996 204.814 84.0163 206.338 85.5437 206.913C86.5203 207.281 87.6501 207.212 88.549 207.741C89.2535 208.156 89.728 208.892 90.4463 209.283C92.4771 210.388 95.3013 208.269 97.1992 209.588C97.7418 209.966 98.0871 210.565 98.5871 210.997C100.34 212.511 103.215 211.498 105.239 212.628C106.543 213.356 107.219 214.812 107.914 216.131C109.657 219.436 112.476 222.674 116.21 222.937C117.383 223.019 118.581 222.798 119.728 223.058C120.874 223.318 122.003 224.316 121.819 225.475C121.503 227.461 122.487 229.636 122.223 231.629C121.742 235.26 116.578 236.856 116.135 240.492C116.037 241.288 116.189 242.11 115.999 242.889C115.767 243.844 115.047 244.622 114.792 245.571C114.308 247.37 115.6 249.161 117.019 250.371C118.439 251.581 120.132 252.625 120.908 254.319C121.728 256.11 121.325 258.198 121.592 260.149C122.174 264.407 125.862 267.564 129.657 269.6C130.813 270.22 132.055 270.821 132.803 271.897C133.78 273.301 133.683 275.152 134.009 276.831C134.808 280.94 138.276 284.326 138.374 288.511C138.444 291.486 136.787 294.184 135.797 296.991C134.868 299.68 134.532 302.537 134.812 305.367C135.091 308.197 135.979 310.934 137.415 313.391C138.156 314.639 139.042 315.815 139.566 317.168C140.501 319.581 140.198 322.325 141.06 324.765C142.2 327.992 145.332 330.657 145.032 334.065C146.454 337.01 149.594 338.457 152.751 339.334L158.41 340.905C159.493 341.206 160.626 341.509 161.729 341.292C162.832 341.074 163.885 340.16 163.856 339.038C161.082 338.414 158.218 337.75 155.93 336.064C153.643 334.377 152.076 331.373 152.944 328.671C153.346 327.418 154.202 325.971 153.388 324.936C152.922 324.343 152.07 324.188 151.544 323.647C150.724 322.804 151.006 321.386 151.596 320.369C152.185 319.352 153.037 318.443 153.275 317.292C153.395 316.648 153.315 315.983 153.045 315.386C152.775 314.789 152.329 314.288 151.766 313.952C152.815 313.556 153.77 312.946 154.567 312.159C155.303 311.32 155.644 310.026 155.064 309.073C156.785 309.29 158.816 309.397 159.946 308.084C160.848 307.035 160.786 305.468 160.429 304.133C160.073 302.798 159.471 301.501 159.452 300.12C163.421 300.308 167.399 300.173 171.346 299.718C170.775 297.8 169.478 296.18 167.73 295.2C169.518 294.898 171.146 292.763 171.711 291.045C172.276 289.326 172.132 287.454 171.783 285.679C171.649 285.222 171.63 284.739 171.729 284.274C171.93 283.634 172.561 283.243 173.144 282.909L182.017 277.826C182.547 277.561 183.027 277.208 183.436 276.781C184.366 275.692 184.228 274.047 183.752 272.698C183.276 271.348 182.514 270.079 182.33 268.66C181.782 264.417 186.336 261.372 187.873 257.378C188.476 255.81 188.599 254.106 188.715 252.431C188.841 250.632 188.85 248.543 187.465 247.383C186.138 246.272 184.064 246.52 182.675 245.486C181.401 244.539 180.962 242.698 179.571 241.932C178.307 241.237 176.723 241.679 175.318 241.352C172.844 240.777 171.287 237.932 168.76 237.669C167.334 237.52 165.721 238.216 164.552 237.387C163.523 236.658 163.482 235.191 163.286 233.946C162.942 232.012 162.013 230.229 160.622 228.838C159.232 227.446 157.448 226.514 155.51 226.165C154.04 225.93 152.44 226.019 151.189 225.213C149.923 224.397 149.342 222.87 148.348 221.74C146.745 219.919 144.22 219.272 141.855 218.717L132.235 216.461C130.527 216.061 128.326 215.848 127.41 217.34C127.138 217.909 126.946 218.511 126.839 219.131C126.495 220.253 125.804 221.237 124.865 221.943C123.925 222.648 122.786 223.038 121.61 223.057C120.804 221.685 119.498 220.677 117.964 220.243C116.989 219.971 115.945 219.941 115.014 219.542C114.508 219.296 114.057 218.948 113.689 218.522C113.322 218.095 113.046 217.598 112.877 217.062C112.709 216.525 112.652 215.96 112.71 215.4C112.769 214.841 112.941 214.299 113.216 213.808C113.771 212.823 113.985 211.684 113.826 210.565C113.667 209.447 113.143 208.411 112.335 207.619C110.699 206.154 108.332 205.8 106.139 205.947C105.564 204.696 106.525 203.286 107.56 202.377C108.595 201.468 109.852 200.575 110.078 199.218C110.432 197.083 107.702 195.462 105.629 196.098C103.555 196.735 102.232 198.743 101.358 200.723C100.856 201.859 100.429 203.056 99.6373 204.014C98.8457 204.972 97.5708 205.657 96.365 205.35C94.6579 204.915 93.9986 202.892 93.6208 201.175C93.1139 198.872 92.604 196.537 92.7102 194.181C92.8164 191.825 93.6126 189.406 95.354 187.812C98.1918 185.213 102.545 185.468 106.375 185.882C105.47 184.865 105.694 183.151 106.662 182.194C107.173 181.741 107.787 181.42 108.451 181.257C109.115 181.094 109.808 181.095 110.472 181.261C111.626 181.5 112.665 182.12 113.423 183.021C114.511 184.344 114.821 186.132 115.644 187.634C116.466 189.136 118.316 190.418 119.83 189.612C121.138 188.915 121.345 187.107 121.02 185.664C120.694 184.222 120.003 182.819 120.121 181.345C120.346 178.533 123.268 176.84 125.847 175.682C128.426 174.523 131.38 172.966 131.788 170.174C131.802 169.627 131.906 169.087 132.094 168.573C132.38 168.12 132.778 167.747 133.249 167.49C140.776 162.528 148.428 157.506 157.031 154.795C157.479 154.654 157.531 154.81 157.987 154.7C158.626 154.332 158.203 153.314 157.591 152.904C156.978 152.493 156.16 152.179 156.005 151.46C155.891 150.931 156.203 150.412 156.284 149.878C156.484 148.564 154.908 147.351 153.685 147.876C152.994 146.964 154.361 145.903 155.467 145.599C158.787 144.688 162.195 144.132 165.633 143.943C166.03 143.88 166.437 143.949 166.79 144.139C167.368 144.538 167.294 145.453 166.885 146.023C166.475 146.592 165.839 146.95 165.329 147.432C164.771 147.973 164.374 148.657 164.18 149.408C163.986 150.16 164.002 150.95 164.227 151.693C166.022 152.603 167.973 153.541 169.961 153.22C171.949 152.899 173.714 150.671 172.779 148.892C171.909 147.235 169.296 146.861 168.846 145.045C168.32 142.918 171.337 141.027 170.658 138.944C170.36 138.032 169.448 137.495 168.749 136.837C167.923 136.029 167.361 134.991 167.137 133.86C166.913 132.728 167.038 131.555 167.494 130.495C166.355 130.695 165.185 130.619 164.081 130.275C162.977 129.93 161.972 129.327 161.15 128.515C159.633 126.987 158.422 124.577 156.267 124.646C154.29 124.708 152.587 127.009 150.738 126.307C150.283 126.135 149.803 125.783 149.363 125.989C149.218 126.083 149.097 126.208 149.008 126.355C148.919 126.502 148.865 126.667 148.85 126.839C148.38 129.079 149.188 131.633 147.964 133.569C146.631 135.676 143.55 135.968 141.935 137.868C141.058 138.9 140.718 140.29 139.912 141.377C139.106 142.464 137.396 143.156 136.428 142.208C136.904 141.233 137.034 140.127 136.797 139.069C136.56 138.011 135.97 137.065 135.124 136.384C134.226 135.8 133.258 135.33 132.243 134.986C131.108 134.507 130.029 133.907 129.024 133.197C128.521 132.894 128.112 132.457 127.843 131.936C127.63 131.283 127.659 130.575 127.923 129.941C128.414 128.539 129.279 127.297 130.426 126.349C131.572 125.401 132.956 124.783 134.429 124.563C135.717 124.388 137.216 124.449 138.068 123.471C138.519 122.953 138.755 122.17 139.41 121.96C139.829 121.876 140.263 121.929 140.649 122.112L145.456 123.799C145.992 124.041 146.582 124.138 147.168 124.082C147.458 124.043 147.723 123.896 147.909 123.67C148.095 123.444 148.189 123.157 148.172 122.865C148.018 122.069 146.79 121.687 146.902 120.884C146.964 120.623 147.104 120.388 147.304 120.209C149.038 118.367 151.16 116.931 153.516 116.003C155.872 115.075 158.405 114.678 160.933 114.84C161.54 115.834 160.58 117.011 159.782 117.86C158.984 118.708 158.342 120.224 159.308 120.877C159.703 121.079 160.143 121.177 160.587 121.165C161.771 121.324 162.921 121.672 163.994 122.195C165.655 122.916 167.284 123.705 168.881 124.562C168.74 123.511 168.605 122.405 169.004 121.423C169.403 120.44 170.538 119.67 171.529 120.052C172.484 120.421 172.974 121.682 173.991 121.798C175.348 121.952 175.884 119.952 175.317 118.713C174.75 117.473 173.628 116.435 173.534 115.076C173.471 114.159 173.82 113.021 173.086 112.466C172.825 112.299 172.528 112.195 172.22 112.163L153.884 108.797C152.795 108.597 151.222 108.75 151.173 109.854C151.146 110.47 151.698 111.079 151.454 111.645C151.193 112.249 150.337 112.194 149.713 112.408C148.745 112.74 148.259 113.886 148.352 114.903C148.522 115.913 148.915 116.873 149.501 117.714C148.308 117.216 146.502 117.125 145.309 116.628Z" fill="#374151"/>
<path d="M130.679 101.101C129.523 100.72 128.277 100.702 127.11 101.05C125.944 101.399 124.913 102.097 124.157 103.05C123.855 103.446 123.602 103.993 123.854 104.422C124.217 105.038 125.14 104.795 125.821 104.574C126.821 104.218 127.91 104.192 128.927 104.501C129.566 104.72 130.138 105.106 130.78 105.317C131.092 105.447 131.435 105.491 131.77 105.442C132.105 105.393 132.421 105.254 132.683 105.04C133.123 104.591 133.151 103.895 133.152 103.267C133.182 103.057 133.165 102.843 133.102 102.64C133.039 102.437 132.932 102.251 132.787 102.095C132.53 101.946 132.242 101.861 131.945 101.846C131.281 101.724 130.68 101.374 130.247 100.857" fill="#374151"/>
<path d="M137.291 99.2651C137.032 99.251 136.774 99.3036 136.542 99.4178C136.309 99.5319 136.11 99.7039 135.963 99.917C135.817 100.13 135.727 100.377 135.704 100.635C135.681 100.892 135.725 101.151 135.831 101.387C136.626 101.603 137.456 101.657 138.272 101.546C138.679 101.483 139.058 101.301 139.362 101.023C139.665 100.746 139.88 100.385 139.978 99.9855C139.017 100.16 138.026 99.971 137.197 99.4557" fill="#374151"/>
<path d="M159.473 96.1984C157.31 96.6571 155.209 97.369 153.214 98.3194C154.155 98.6801 154.954 99.3327 155.495 100.181C156.036 101.029 156.289 102.028 156.218 103.031C156.133 103.416 156.143 103.816 156.246 104.196C156.476 104.752 157.142 104.961 157.728 105.103C158.78 105.423 159.879 105.563 160.977 105.517C161.527 105.488 162.061 105.323 162.531 105.037C163 104.751 163.391 104.352 163.667 103.877C163.827 103.427 164.014 102.986 164.227 102.558C165.631 100.426 169.801 103.004 171.308 100.943C171.839 100.217 171.79 99.1242 172.483 98.5489C172.841 98.2982 173.255 98.1402 173.69 98.0892C176.721 97.4886 179.782 97.0536 182.861 96.7863C184.32 96.6597 186.221 96.1373 186.233 94.6768C180.739 93.6004 175.042 94.3649 170.028 96.8513C168.222 97.7539 165.833 99.6523 164.093 98.4558C163.441 98.0078 163.473 96.8015 162.577 96.2977C161.66 95.7827 160.446 95.9921 159.473 96.1984Z" fill="#374151"/>
<path d="M177.441 99.5501L180.02 100.044C179.545 100.023 179.072 100.104 178.631 100.28C178.189 100.456 177.791 100.724 177.462 101.066C177.133 101.408 176.88 101.816 176.722 102.263C176.563 102.709 176.502 103.185 176.542 103.657C178.957 104.462 181.591 103.679 184.135 103.786C186.679 103.893 189.639 105.706 189.205 108.208C189.073 108.965 188.635 109.721 188.863 110.455C189.023 110.969 189.477 111.334 189.734 111.808C190.269 112.795 189.841 114.043 189.166 114.94C188.491 115.837 187.584 116.553 186.991 117.506C185.517 119.877 186.354 122.942 187.232 125.591C187.486 126.592 187.955 127.526 188.606 128.328C189.907 129.708 192.027 129.828 193.926 129.855C195.308 129.876 196.891 129.807 197.764 128.739C198.905 127.345 198.108 125.17 198.859 123.533C199.541 122.047 201.279 121.41 202.854 120.957C205.738 120.129 208.678 119.425 211.406 118.173C214.792 116.62 217.957 114.198 221.68 113.998C222.724 113.942 223.794 114.065 224.8 113.78C225.806 113.494 226.761 112.627 226.685 111.586C226.62 110.697 225.866 110.044 225.277 109.374C224.688 108.704 224.225 107.674 224.767 106.965L234.523 105.147C233.832 103.267 233.293 100.791 234.882 99.567C235.456 99.1254 236.223 98.9489 236.711 98.4152C237.544 97.5054 237.125 95.9382 236.165 95.1644C235.204 94.3907 233.905 94.2111 232.675 94.1092C228.397 93.7547 224.094 93.9889 219.808 94.2233C211.429 94.6814 203.05 95.1396 194.671 95.5977C192.985 95.6899 191.037 95.549 189.49 96.123C188.18 96.609 187.249 97.501 185.751 97.8144C182.986 98.393 179.943 98.0015 177.441 99.5501Z" fill="#374151"/>
<path d="M223.645 119.885C223.382 119.844 223.113 119.904 222.894 120.055C222.749 120.214 222.663 120.418 222.65 120.632C222.483 121.579 222.682 122.554 223.205 123.362C223.472 123.758 223.84 124.075 224.271 124.282C224.702 124.488 225.181 124.575 225.658 124.535C226.819 124.387 227.675 123.399 228.743 122.916C230.388 122.174 237.376 121.016 232.542 118.411C230.876 117.513 229.8 118.306 228.487 118.897C226.993 119.659 225.319 120.001 223.645 119.885Z" fill="#374151"/>
<path d="M265.985 98.0794C265.421 98.3094 264.949 98.7195 264.642 99.2454C264.501 99.5125 264.469 99.8235 264.551 100.114C264.633 100.404 264.824 100.652 265.085 100.806C265.296 100.882 265.519 100.918 265.743 100.91L268.038 100.979C269.013 101.008 270.231 101.215 270.493 102.152C270.688 102.848 270.252 103.742 270.778 104.24C271.003 104.414 271.274 104.519 271.558 104.543C272.315 104.737 273.104 104.763 273.871 104.618C275.541 104.171 274.664 103.154 275.189 102.249C275.994 100.864 275.855 101.703 277.273 100.909C278.32 100.322 279.673 99.2589 278.799 97.7647C277.279 95.1663 268.228 96.9631 265.985 98.0794Z" fill="#374151"/>
<path d="M311.286 96.773L309.953 96.9504C306.948 97.3505 303.925 97.7542 301.031 98.6544C302.284 99.1486 303.598 99.4703 304.938 99.6108C305.676 99.6469 306.408 99.7508 307.127 99.9212C308.405 100.301 309.694 101.281 310.929 100.779C311.695 100.468 311.945 99.6722 312.579 99.2507C313.017 98.9596 314.678 98.4884 314.864 98.1947C316.366 95.8195 312.44 96.6194 311.286 96.773Z" fill="#374151"/>
<path d="M317.137 102.815C315.357 103.808 313.706 105.015 312.219 106.408C311.593 106.995 310.954 107.725 311.01 108.581C311.086 109.717 312.3 110.377 313.352 110.821L317.612 112.62C318.129 111.894 317.656 110.891 317.122 110.177C316.588 109.463 315.953 108.636 316.189 107.777C316.458 106.796 317.657 106.462 318.662 106.293C320.3 106.018 324.717 106.04 324.187 103.407C323.561 100.305 318.781 101.898 317.137 102.815Z" fill="#374151"/>
<path d="M316.281 278.365C315.875 279.536 315.837 280.916 316.538 281.939C317.326 283.086 318.901 283.514 320.264 283.223C321.622 282.863 322.832 282.087 323.723 281.005C324.539 280.098 325.21 279.071 325.713 277.961C326.415 276.231 326.91 274.424 327.188 272.578L328.511 265.65C328.806 264.102 328.795 259.355 325.942 260.901C325.163 261.324 323.358 264.66 322.541 265.606C321.069 267.311 320.875 268.965 320.1 271.031C319.129 273.618 317.178 275.774 316.281 278.365Z" fill="#374151"/>
<path d="M466.962 313.818C466.029 313.454 465.123 313.024 464.251 312.53C463.377 314.927 462.913 317.452 462.877 320.001L469.265 316.396C470.226 315.853 471.315 315.1 471.294 313.999C471.303 313.863 471.275 313.727 471.212 313.605C471.15 313.484 471.057 313.382 470.941 313.309C470.799 313.252 470.645 313.234 470.493 313.257C469.546 313.335 468.682 313.8 467.789 314.124C466.895 314.447 465.85 314.618 465.031 314.138" fill="#374151"/>
<path d="M500.659 315.958C499.958 316.149 499.273 316.394 498.611 316.692C497.145 317.436 496.148 318.849 494.829 319.829C493.566 320.766 492.047 321.281 490.555 321.782C490.116 322.169 490.318 322.948 490.794 323.288C491.306 323.579 491.894 323.71 492.481 323.666C494.031 323.7 495.664 323.715 497.021 322.969C497.786 322.474 498.502 321.907 499.159 321.276C500.746 319.955 502.652 319.084 504.539 318.241C505.225 317.983 505.86 317.604 506.414 317.123C507.599 315.958 507.683 314.16 505.973 313.764C504.592 313.443 501.975 315.534 500.659 315.958Z" fill="#374151"/>
<path d="M515.548 306.257C515.625 305.455 515.518 304.647 515.235 303.892C514.953 303.138 514.502 302.457 513.918 301.902C513.9 303.506 513.851 305.215 512.947 306.541C512.302 307.486 511.292 308.125 510.586 309.025C509.88 309.925 509.567 311.352 510.395 312.142C510.924 312.544 511.569 312.765 512.234 312.774C513.882 312.967 515.79 313.075 516.947 311.887C517.578 311.239 517.885 310.278 518.654 309.802C518.941 309.682 519.197 309.499 519.404 309.267C519.721 308.763 519.216 308.099 518.648 307.917C518.08 307.736 517.453 307.821 516.882 307.649C516.311 307.476 515.787 306.835 516.08 306.317" fill="#374151"/>
<path d="M489.086 247.446C488.221 247.656 487.325 247.709 486.442 247.602C484.974 247.332 483.832 246.229 482.647 245.324C479.831 243.185 476.407 241.992 472.868 241.916C469.648 241.855 466.398 242.726 463.236 242.118C463.443 243.265 464.426 244.124 465.475 244.635C466.524 245.146 467.682 245.403 468.736 245.904C470.425 246.714 471.764 248.103 472.508 249.818C472.847 250.608 473.061 251.469 473.575 252.159C474.627 253.57 476.619 253.88 478.377 253.764C480.67 253.614 483.064 252.956 485.197 253.808C486.829 254.46 487.997 255.884 489.359 256.992C490.722 258.1 492.64 258.922 494.205 258.123C492.58 257.598 491.166 256.569 490.168 255.185C489.171 253.802 488.644 252.137 488.662 250.434C490.196 250.575 494.616 250.52 494.378 247.92C494.176 245.716 490.403 247.208 489.086 247.446Z" fill="#374151"/>
<path d="M469.015 265.377C469.287 263.887 470.777 262.571 470.313 261.128C469.992 260.131 468.832 259.638 467.782 259.614C466.732 259.589 465.701 259.901 464.651 259.93C463.967 259.894 463.282 259.904 462.6 259.959C460.516 260.301 459.231 262.48 457.267 263.255C456.073 263.726 454.731 263.636 453.489 263.962C450.67 264.701 448.886 267.359 446.915 269.502C443.73 272.948 439.581 275.362 435.006 276.429C433.403 276.799 431.679 277.036 430.405 278.075C428.718 279.45 428.302 281.808 427.927 283.949C426.89 289.862 425.305 295.667 423.192 301.288L429.887 302.141C431.16 302.303 432.479 302.461 433.705 302.085C434.596 301.75 435.44 301.302 436.217 300.751C439.198 298.904 442.535 297.703 446.012 297.224C447.765 296.984 449.603 296.94 451.249 297.59C452.894 298.24 454.305 299.714 454.443 301.474C455.155 301.253 455.913 301.229 456.637 301.405C457.361 301.581 458.024 301.949 458.554 302.471C459.602 303.537 460.289 304.904 460.517 306.379C460.693 307.293 460.869 308.388 461.719 308.771C462.413 309.084 463.208 308.747 463.967 308.686C466.541 308.481 468.677 311.475 471.206 310.959C473.92 310.406 474.586 306.353 477.233 305.541C478.753 305.075 480.886 305.642 481.614 304.231C482.255 302.988 480.975 301.553 481.107 300.161C481.27 298.446 483.297 297.719 484.86 296.987C490.247 294.466 492.804 287.232 490.193 281.898C488.646 278.737 485.603 276.249 485.041 272.776C484.608 270.105 485.664 266.989 483.956 264.887C483.088 263.817 481.617 263.226 481.1 261.95C480.775 261.147 480.905 260.235 480.73 259.386C480.555 258.537 479.813 257.65 478.973 257.87C476.534 258.508 475.755 266.024 474.45 267.85C472.465 270.626 468.389 268.797 469.015 265.377Z" fill="#374151"/>
<path d="M423.932 250.286C423.099 250.053 422.189 249.823 421.39 250.156C420.591 250.489 420.125 251.659 420.766 252.239C425.78 252.044 430.826 251.851 435.797 252.53C441.526 253.313 447.195 255.251 452.948 254.681C449.662 253.714 446.321 252.941 442.943 252.365L437.311 251.292C435.8 250.976 434.273 250.741 432.737 250.587C429.524 250.322 427.092 251.169 423.932 250.286Z" fill="#374151"/>
<path d="M428.952 232.865C428.536 232.83 428.02 232.8 427.805 233.157C427.599 233.499 427.835 233.949 427.724 234.332C427.573 234.854 426.887 234.988 426.346 234.917C425.806 234.846 425.221 234.675 424.742 234.935C424.499 235.101 424.317 235.34 424.222 235.618C424.127 235.896 424.125 236.197 424.216 236.476C424.412 237.03 424.729 237.533 425.144 237.95C425.852 238.84 426.659 239.648 427.549 240.357C429.273 241.626 431.608 242.237 432.693 244.08C432.846 244.437 433.082 244.753 433.38 245.002C433.901 245.331 434.581 245.081 435.142 244.825L437.108 243.929C437.463 243.801 437.779 243.587 438.028 243.305C438.477 242.697 438.201 241.832 437.824 241.177C437.447 240.522 436.964 239.844 437.045 239.093C437.189 237.754 438.916 237.241 439.625 236.095C440.341 234.941 439.875 233.452 439.958 232.097C440.054 230.512 441.052 228.451 439.446 227.266C438.081 226.26 436.776 227.19 435.796 228.301C433.729 230.644 432.752 233.181 428.952 232.865Z" fill="#374151"/>
<path d="M440.89 209.184C441.561 210.466 442.961 211.232 443.693 212.481C444.487 213.834 444.396 215.583 445.257 216.895C446.141 218.241 447.918 218.956 448.414 220.487C448.954 222.159 447.727 224.19 448.705 225.651C448.888 225.89 449.118 226.088 449.381 226.233C449.645 226.379 449.935 226.468 450.235 226.496C450.535 226.523 450.837 226.488 451.122 226.393C451.408 226.298 451.67 226.145 451.893 225.943C452.305 225.495 452.526 224.904 452.508 224.296C452.49 223.689 452.235 223.112 451.797 222.689C451.217 222.162 450.386 221.935 449.902 221.319C449.651 220.964 449.483 220.557 449.412 220.128C449.148 218.89 449.19 217.607 449.535 216.389C449.664 216.08 449.697 215.739 449.629 215.411C449.411 214.78 448.555 214.735 447.953 214.442C446.587 213.777 446.621 211.855 446.859 210.358C446.7 211.354 443.141 209.659 442.768 209.094C442.028 207.973 442.431 205.809 442.284 204.57C440.685 205.338 440.069 207.616 440.89 209.184Z" fill="#374151"/>
<path d="M405.03 228.915C404.373 228.181 403.383 227.414 402.503 227.856C401.831 228.194 401.646 229.121 401.909 229.824C402.23 230.507 402.724 231.094 403.342 231.528C405.178 233.039 407.154 234.401 408.756 236.157C411.621 239.298 413.14 243.537 416.256 246.431C416.883 247.102 417.712 247.55 418.618 247.706C419.526 247.79 420.545 247.21 420.65 246.307C420.736 245.562 420.215 244.896 419.707 244.344C418.496 243.031 417.171 241.822 416.028 240.449C415.5 239.922 415.168 239.231 415.088 238.49C415.082 237.751 415.758 236.978 416.475 237.161C415.602 236.938 414.955 235.487 413.674 235.215C412.603 234.987 412.344 235.648 411.069 235.103C408.639 234.063 406.732 230.815 405.03 228.915Z" fill="#374151"/>
<path d="M462.14 157.48C461.443 157.273 460.758 157.029 460.087 156.748C458.282 156.208 455.895 157.531 456.135 159.395C456.295 160.634 457.45 161.469 458.089 162.543C459.035 164.136 458.783 166.157 458.285 167.941C458.163 168.494 457.931 169.016 457.603 169.477C457.143 169.964 456.594 170.358 455.985 170.637C453.548 172.001 451.399 173.822 449.657 176.001C449.467 176.202 449.335 176.45 449.275 176.719C449.188 177.349 449.823 177.807 450.181 178.332C450.978 179.498 450.402 181.067 450.481 182.476C450.469 182.675 450.508 182.874 450.594 183.054C450.681 183.234 450.812 183.389 450.976 183.504C451.456 183.747 452.025 183.334 452.285 182.864C453.148 181.303 452.498 178.798 454.118 178.046C454.424 177.903 454.796 177.843 455 177.575C455.324 177.149 455.012 176.518 455.176 176.009C455.423 175.245 456.471 175.21 457.275 175.244C458.661 175.302 460.046 175.118 461.368 174.701C461.887 174.578 462.358 174.306 462.723 173.918C463.207 173.315 463.164 172.458 463.068 171.692C462.583 167.871 461.37 164.177 459.493 160.811C460.916 160.993 462.464 161.15 463.692 160.41C464.38 159.996 465.204 158.757 464.863 157.914C464.324 156.581 463.35 157.703 462.14 157.48Z" fill="#374151"/>
<path d="M279.713 178.495C279.884 179.406 280.051 180.366 279.752 181.243C279.452 182.12 278.511 182.853 277.622 182.584C276.932 182.376 276.533 181.684 276.043 181.156C273.318 178.222 267.17 179.921 265.487 176.29C264.8 174.809 265.267 173.034 264.798 171.47C264.503 170.566 263.915 169.785 263.126 169.251C262.338 168.717 261.394 168.459 260.442 168.518C259.575 168.643 258.73 168.894 257.935 169.264C252.613 171.39 247.026 172.784 241.327 173.408C240.244 173.474 239.173 173.668 238.136 173.987C235.796 174.833 234.197 176.997 233.059 179.205C231.921 181.414 231.081 183.804 229.556 185.766C227.953 187.828 225.706 189.272 223.61 190.833C222.803 191.352 222.131 192.055 221.649 192.884C221.195 193.814 221.22 194.897 221.256 195.931L221.684 208.493C221.739 210.109 221.808 211.782 222.533 213.228C223.438 215.034 225.227 216.217 226.468 217.812C227.734 219.451 228.393 221.476 228.335 223.545C228.308 224.376 228.225 225.36 228.875 225.882C229.27 226.138 229.732 226.27 230.203 226.263L247.238 227.654C250.235 227.899 253.556 228.301 255.512 230.578C256.435 231.653 257.177 233.199 258.592 233.314C259.198 233.364 259.788 233.115 260.395 233.067C261.926 232.946 263.271 234.105 264.12 235.382C265.404 237.328 265.987 239.651 265.773 241.971C265.634 243.427 265.181 244.843 265.084 246.303C264.712 251.856 269.432 256.682 269.524 262.247C269.578 265.521 268.02 268.579 266.501 271.482C268.952 275.186 266.945 280.119 267.921 284.45C268.847 288.559 272.281 291.775 273.137 295.899C273.529 297.787 273.551 300.11 275.22 301.082C275.952 301.438 276.764 301.6 277.578 301.553C282.483 301.611 287.332 300.51 291.729 298.339C293.793 297.318 295.932 295.793 296.292 293.523C296.583 291.693 295.652 289.645 296.599 288.051C297.715 286.172 300.574 286.321 302.217 284.876C304.881 282.533 302.803 278.063 303.883 274.687C304.853 271.653 308.193 270.041 309.848 267.317C310.5 266.146 310.968 264.882 311.235 263.569C311.993 260.432 312.465 257.232 312.645 254.01C312.689 252.052 312.834 250.098 313.079 248.155C314.864 237.093 325.827 229.686 329.386 219.059C329.726 218.044 329.886 216.693 328.981 216.118C328.444 215.863 327.835 215.799 327.257 215.938L319.404 216.926C318.429 217.049 317.395 217.163 316.499 216.759C315.603 216.355 314.961 215.225 315.437 214.366C316.77 211.956 314.027 208.911 312.808 206.441C309.525 199.791 305.616 193.467 301.133 187.555C300.846 187.251 300.667 186.862 300.621 186.447L302.85 186.521C302.098 183.828 300.856 180.881 298.234 179.896C296.756 179.341 295.119 179.533 293.542 179.619C289.026 179.865 284.183 179.185 279.713 178.495Z" fill="#374151"/>
<path d="M293.546 117.81C294.727 119.062 296.052 120.389 297.762 120.608C300.782 120.993 302.954 117.878 304.337 115.171C304.388 115.861 304.707 116.504 305.226 116.963C305.745 117.422 306.423 117.661 307.115 117.629C307.861 117.504 308.572 117.226 309.205 116.814C315.19 113.552 321.892 111.823 328.712 111.784C328.646 111.268 328.775 110.747 329.072 110.321C329.369 109.894 329.814 109.592 330.321 109.474C331.707 109.199 332.956 110.395 333.625 111.637C334.294 112.879 334.711 114.319 335.774 115.249C336.836 116.179 338.894 116.138 339.313 114.792C339.716 113.499 338.366 112.397 337.245 111.635C336.123 110.873 334.941 109.462 335.696 108.338C341.426 107.073 347.192 105.803 353.055 105.551C354.053 105.586 355.048 105.415 355.977 105.049C356.871 104.611 357.581 103.618 357.341 102.654C356.061 102.954 354.721 102.867 353.492 102.404C352.262 101.941 351.198 101.124 350.436 100.056C358.571 99.3861 367.224 98.8152 374.434 102.634C375.299 104.486 370.89 106.028 372.07 107.699C372.446 108.232 373.2 108.294 373.853 108.307C378.864 108.399 383.903 108.49 388.856 107.736C390.667 107.46 392.495 107.071 394.313 107.294C397.34 107.667 399.929 109.682 402.907 110.339C404.12 110.606 405.479 110.615 406.501 109.912C407.522 109.208 407.962 107.607 407.124 106.693C409.928 103.951 414.582 104.631 418.282 105.943C421.981 107.256 425.486 109.372 429.401 109.665C432.209 109.875 435.056 109.121 437.83 109.6C439.573 109.901 441.196 110.675 442.9 111.15C446.123 112.049 449.532 111.859 452.878 111.902C461.415 112.017 469.859 113.691 477.792 116.841C478.824 117.176 479.77 117.733 480.562 118.473C481.3 119.262 481.677 120.487 481.18 121.445L472.983 120.251C473.756 121.767 475.754 122.026 477.376 122.549C478.999 123.072 480.681 124.86 479.706 126.255C477.948 125.697 476.355 127.45 475.467 129.063C474.579 130.677 473.496 132.609 471.654 132.707C470.004 132.795 468.008 131.394 466.933 132.645C468.419 134.515 469.691 136.544 470.726 138.694C471.789 140.902 472.546 143.684 471.109 145.671C470.884 146.026 470.541 146.291 470.14 146.421C468.967 146.717 468.205 145.286 467.364 144.418C466.304 143.325 464.702 143.015 463.266 142.503C461.831 141.99 460.319 140.982 460.207 139.465C460.137 138.521 460.636 137.644 461.004 136.772C461.623 135.302 461.893 133.71 461.795 132.119C461.714 130.839 461.354 129.507 460.433 128.613C459.511 127.719 457.92 127.435 456.931 128.254C456.469 128.636 456.099 129.248 455.499 129.27C454.44 129.311 453.627 127.469 452.775 128.098C452.875 128.768 452.735 129.451 452.381 130.029C449.838 132.236 445.931 131.302 442.653 132.082C441.094 132.527 439.601 133.177 438.215 134.015C437.696 134.236 437.254 134.606 436.946 135.077C436.537 135.871 436.988 136.887 437.709 137.414C438.474 137.882 439.334 138.175 440.226 138.271C444.223 139.026 448.278 140.195 451.434 142.756C454.589 145.317 456.658 149.55 455.66 153.483L447.778 145.971C448.077 149.125 448.247 152.288 448.288 155.46C448.338 156.079 448.253 156.702 448.038 157.285C447.476 158.523 445.953 158.94 444.618 159.213C444.247 159.283 443.895 159.431 443.585 159.647C443.275 159.863 443.015 160.141 442.821 160.465C442.626 160.788 442.503 161.149 442.458 161.523C442.414 161.897 442.449 162.277 442.562 162.636C443.036 164.178 444.219 165.38 445.301 166.577C446.384 167.775 447.449 169.136 447.591 170.743C447.732 172.349 446.517 174.16 444.905 174.048C443.682 173.963 442.775 172.872 442.254 171.765C441.732 170.659 441.422 169.427 440.638 168.487C438.267 165.642 432.94 166.861 430.816 163.828C430.274 164.44 429.898 165.181 429.725 165.979C429.551 166.777 429.584 167.607 429.822 168.388C430.81 167.771 432.163 168.345 432.906 169.241C433.649 170.138 433.999 171.288 434.582 172.295C435.369 173.654 436.621 174.859 436.731 176.425C436.702 177.017 436.712 177.61 436.761 178.201C436.956 179.15 437.76 179.831 438.317 180.624C439.614 182.469 439.55 185.004 438.714 187.097C437.878 189.191 436.377 190.94 434.889 192.636C432.291 195.598 429.64 198.543 426.56 201.003C425.681 201.705 424.743 202.395 424.196 203.377C423.649 204.358 423.621 205.736 424.462 206.482C423.86 206.512 422.78 206.808 422.179 206.838C421.967 204.429 421.921 202.009 422.041 199.595C419.666 198.457 417.109 201.504 417.415 204.114C417.722 206.724 419.614 208.819 420.962 211.077C421.947 212.729 422.68 214.654 422.351 216.548C422.022 218.442 420.327 220.189 418.408 220.022C415.355 219.756 414.077 215.384 411.054 214.884C410.788 214.821 410.508 214.849 410.259 214.962C409.81 215.208 409.732 215.807 409.707 216.317C409.583 218.82 409.476 221.423 410.455 223.731C411.889 227.108 415.591 229.943 414.814 233.527C410.63 231.587 408.455 226.907 407.468 222.412C406.48 217.916 406.315 213.197 404.545 208.947C403.201 210.666 400.375 209.245 399.147 207.442C397.982 205.732 397.265 203.755 396.135 202.022C395.006 200.29 393.275 198.739 391.205 198.643C389.035 198.543 387.153 200.029 385.498 201.432C384.137 202.586 382.74 203.786 381.944 205.381C380.787 207.703 381.089 210.44 381.034 213.032C380.973 215.835 380.378 218.792 378.463 220.843C376.548 222.895 373.014 223.609 370.902 221.76C369.799 220.795 369.265 219.353 368.79 217.968C366.497 211.295 364.588 204.496 363.072 197.606C362.717 199.179 361.332 201.206 360.01 200.28C359.713 200.03 359.473 199.721 359.304 199.373C356.838 195.202 352.269 192.701 347.653 191.201C343.037 189.701 338.181 189.001 333.616 187.353C331.058 186.428 328.615 185.214 326.334 183.734C325.753 184.586 325.414 185.579 325.352 186.608C325.291 187.637 325.509 188.663 325.985 189.578C326.997 191.366 329.288 192.401 331.25 191.776C332.263 191.453 333.119 190.751 334.125 190.404C335.131 190.058 336.481 190.228 336.92 191.195C337.341 192.12 336.705 193.239 337.021 194.205C337.501 195.676 339.726 195.789 340.504 197.128C341.082 198.124 340.606 199.447 339.78 200.251C338.953 201.054 337.851 201.495 336.842 202.055C333.569 203.87 331.242 206.969 328.382 209.38C325.521 211.791 321.486 213.552 318.077 212.005C318.89 207.901 313.988 204.888 313.087 200.802C312.79 199.457 312.944 198.029 312.52 196.718C311.907 194.821 310.219 193.516 308.835 192.078C307.156 190.315 305.847 188.235 304.988 185.959C304.128 183.684 303.733 181.26 303.828 178.83C303.902 177.141 304.213 175.425 303.828 173.78C303.442 172.134 302.076 170.541 300.383 170.615C296.517 170.786 291.646 171.072 289.618 167.785C288.894 166.612 288.579 164.893 289.626 163.994C290.364 163.36 291.454 163.42 292.424 163.515L301.135 164.37C303.172 164.57 305.375 164.735 307.123 163.672C308.872 162.61 309.629 159.789 308.01 158.539C306.827 157.626 304.708 157.675 304.364 156.223C304.078 155.014 305.42 153.642 304.695 152.631C304.175 151.906 303.007 152.107 302.299 152.65C301.591 153.194 301.077 153.988 300.285 154.4C298.895 155.121 297.234 154.434 295.738 153.968C294.243 153.501 292.238 153.461 291.512 154.847C290.701 156.396 292.232 158.427 291.427 159.98C290.362 162.032 286.758 160.864 285.263 162.63C283.547 164.656 286.43 167.677 285.852 170.266C285.113 170.631 284.292 170.798 283.469 170.752C282.646 170.706 281.85 170.448 281.157 170.003C280.475 169.54 279.932 168.902 279.585 168.156C279.238 167.411 279.1 166.585 279.186 165.767C279.329 164.603 279.938 163.414 279.53 162.314C279.2 161.424 278.305 160.894 277.472 160.436L269.007 155.769C268.221 157.224 269.215 159.027 270.457 160.119C271.7 161.211 273.257 162.034 274.073 163.472C274.589 164.468 274.705 165.623 274.396 166.701C274.088 167.779 273.378 168.7 272.413 169.274C272.292 169.357 272.154 169.413 272.009 169.438C271.864 169.463 271.716 169.457 271.574 169.42C271.439 169.34 271.321 169.235 271.227 169.11C271.134 168.984 271.067 168.841 271.029 168.69C269.536 164.877 267.293 161.118 263.708 159.126C260.123 157.134 254.971 157.544 252.62 160.899C252.062 161.696 251.687 162.604 251.2 163.447C248.616 167.923 243.075 170.043 237.898 169.904C237.392 169.932 236.888 169.814 236.447 169.564C235.611 168.988 235.648 167.765 235.776 166.759L236.32 162.489C236.429 161.631 236.587 160.683 237.267 160.148C238.226 159.394 239.61 159.87 240.831 159.852C241.756 159.809 242.646 159.483 243.379 158.919C244.112 158.354 244.654 157.578 244.93 156.696C245.177 155.806 245.176 154.865 244.926 153.975C244.676 153.086 244.188 152.281 243.513 151.647C242.954 151.123 242.202 150.464 242.498 149.757C242.616 149.562 242.775 149.394 242.965 149.267C243.155 149.139 243.37 149.055 243.596 149.019C245.79 148.384 248.108 148.217 250.265 147.467C252.423 146.718 254.515 145.183 255.025 142.962C255.182 142.282 255.253 141.457 255.866 141.12C256.174 140.99 256.504 140.923 256.838 140.922C258.007 140.756 259.072 140.159 259.823 139.249C260.573 138.339 260.955 137.182 260.893 136.005C261.927 135.285 263.375 135.815 264.376 136.581C265.376 137.348 266.259 138.36 267.476 138.691C269.744 139.306 271.935 137.303 274.286 137.294C275.274 137.29 276.297 137.639 277.227 137.305C278.17 136.966 278.733 136.03 279.456 135.338C280.18 134.647 281.449 134.225 282.117 134.97L281.548 130.766C282.694 131.055 283.889 131.096 285.051 130.886C286.214 130.677 287.319 130.221 288.29 129.551L280.938 127.073C280.682 127.009 280.446 126.883 280.25 126.706C279.716 126.132 280.247 125.237 280.681 124.584C281.721 123.023 281.896 120.451 280.186 119.674C279.019 119.143 277.679 119.78 276.559 120.403L271.192 123.388C271.022 124.405 272.269 124.982 273.042 125.667C273.51 126.082 273.841 126.628 273.992 127.234C274.142 127.84 274.106 128.477 273.887 129.061C273.669 129.646 273.278 130.151 272.766 130.51C272.254 130.869 271.645 131.066 271.02 131.073C271.373 131.532 271.618 132.063 271.738 132.629C271.857 133.195 271.848 133.78 271.71 134.342L268.099 134.601C267.694 134.682 267.273 134.6 266.928 134.373C266.542 134.031 266.594 133.431 266.505 132.924C266.289 131.699 265.087 130.841 263.86 130.621C262.633 130.4 261.378 130.683 260.163 130.961C259.647 131.146 259.08 131.133 258.574 130.925C258.283 130.736 258.062 130.458 257.945 130.133C257.412 128.845 257.91 127.331 258.766 126.229C259.621 125.127 260.792 124.322 261.844 123.405C264.359 121.204 266.207 118.345 267.179 115.151C269.166 114.32 271.224 113.191 273.212 112.361C276.276 110.813 279.713 110.149 283.135 110.443L289.866 110.571C291.859 110.609 293.906 110.658 295.749 111.416C297.592 112.174 299.211 113.813 299.338 115.797C299.376 116.022 299.357 116.252 299.281 116.467C299.206 116.682 299.077 116.875 298.906 117.027C298.646 117.168 298.351 117.235 298.055 117.218C296.197 117.283 295.404 117.745 293.546 117.81Z" fill="#374151"/>
<path d="M239.893 138.854C240.156 138.605 240.345 138.29 240.44 137.941C240.534 137.592 240.531 137.224 240.43 136.878C239.79 136.631 239.094 136.568 238.42 136.695C237.746 136.822 237.121 137.134 236.615 137.596C236.216 137.999 235.872 138.452 235.593 138.944C234.708 140.384 233.926 142.103 234.438 143.712C234.48 143.888 234.557 144.053 234.663 144.199C234.77 144.344 234.905 144.467 235.06 144.56C235.29 144.652 235.537 144.691 235.784 144.673C236.759 144.672 237.732 144.612 238.699 144.494C239.293 144.422 239.983 144.254 240.213 143.703C240.514 142.979 239.784 142.159 239.997 141.403C240.137 141.065 240.349 140.762 240.619 140.515C240.753 140.39 240.856 140.236 240.919 140.065C240.983 139.894 241.006 139.71 240.986 139.528C240.9 139.174 240.356 138.973 240.16 139.281" fill="#374151"/>
<path d="M244.945 132.319C244.079 132.121 243.187 132.065 242.303 132.154C242.108 132.148 241.914 132.192 241.741 132.281C241.572 132.405 241.45 132.582 241.394 132.782C241.207 133.38 241.253 134.026 241.522 134.591C241.791 135.156 242.264 135.6 242.847 135.833C243.164 135.906 243.468 136.028 243.748 136.194C244.495 136.772 244.018 137.954 244.16 138.887C244.319 139.934 245.335 140.813 245.149 141.856C245.002 142.678 244.122 143.328 244.264 144.151C244.412 145.012 245.508 145.271 246.381 145.34C246.888 145.428 247.409 145.369 247.882 145.168C248.356 144.845 248.693 144.358 248.828 143.801C249.186 142.739 249.336 141.619 249.271 140.501C249.267 139.992 249.139 139.492 248.898 139.044C248.635 138.689 248.343 138.356 248.026 138.048C246.353 136.107 248.115 133.21 244.945 132.319Z" fill="#374151"/>
<path opacity="0.8" d="M465.004 284.428C465.004 284.428 336.832 211.039 281.653 224.944C281.653 224.944 164.711 237.497 151.158 265.115C151.158 265.115 113.984 149.237 100.432 145.375" stroke="#3B82F6" stroke-width="2" stroke-miterlimit="10"/>
<path opacity="0.8" d="M151.158 265.115C172.649 207.949 366.261 144.602 366.261 144.602C338.768 151.555 281.653 224.944 281.653 224.944C281.653 224.944 160.839 137.263 100.432 145.375C100.432 145.375 366.455 154.066 465.003 284.428" stroke="#3B82F6" stroke-width="2" stroke-miterlimit="10"/>
<path d="M100.432 150.976C103.533 150.976 106.046 148.468 106.046 145.375C106.046 142.282 103.533 139.774 100.432 139.774C97.3307 139.774 94.8169 142.282 94.8169 145.375C94.8169 148.468 97.3307 150.976 100.432 150.976Z" fill="#3B82F6"/>
<path d="M151.158 270.716C154.259 270.716 156.773 268.208 156.773 265.115C156.773 262.022 154.259 259.514 151.158 259.514C148.057 259.514 145.543 262.022 145.543 265.115C145.543 268.208 148.057 270.716 151.158 270.716Z" fill="#3B82F6"/>
<path d="M366.261 150.203C369.362 150.203 371.876 147.696 371.876 144.602C371.876 141.509 369.362 139.002 366.261 139.002C363.16 139.002 360.646 141.509 360.646 144.602C360.646 147.696 363.16 150.203 366.261 150.203Z" fill="#3B82F6"/>
<path d="M465.003 290.028C468.104 290.028 470.618 287.521 470.618 284.428C470.618 281.335 468.104 278.827 465.003 278.827C461.902 278.827 459.389 281.335 459.389 284.428C459.389 287.521 461.902 290.028 465.003 290.028Z" fill="#3B82F6"/>
<path d="M281.653 230.545C284.754 230.545 287.268 228.037 287.268 224.944C287.268 221.851 284.754 219.343 281.653 219.343C278.552 219.343 276.038 221.851 276.038 224.944C276.038 228.037 278.552 230.545 281.653 230.545Z" fill="#3B82F6"/>
</g>
<defs>
<clipPath id="clip0_2466_127">
<rect width="552" height="409" fill="white"/>
</clipPath>
</defs>
</svg>
